<svg xmlns="http://www.w3.org/2000/svg" style="display: none;"><symbol id="coin" viewBox="0 0 468.293 468.293"><title>رایگان</title><path style="fill:#F6C358;" d="M392.321,327.514v52.604c0,11.528-8.491,22.367-23.54,31.894c-2.14,1.312-4.418,2.692-6.903,3.935 c0,0-0.069,0-0.069,0.069c-2.14,1.174-4.418,2.279-6.834,3.452c-8.077,3.797-17.397,7.318-27.614,10.424 c-2.278,0.691-4.557,1.38-6.903,2.071h-0.069c-2.209,0.621-4.487,1.242-6.834,1.864c-8.698,2.209-17.88,4.21-27.614,5.868 c-2.278,0.414-4.556,0.828-6.903,1.174h-0.069c-2.278,0.345-4.487,0.758-6.834,1.035c-8.905,1.311-18.087,2.348-27.614,3.175 c-2.278,0.207-4.557,0.415-6.903,0.553h-0.069c-2.278,0.207-4.487,0.346-6.834,0.484c-8.974,0.551-18.225,0.897-27.614,0.966 c-2.278,0.069-4.556,0.069-6.903,0.069h-0.069c-2.347,0-4.556,0-6.834-0.069c-9.389-0.069-18.639-0.415-27.614-0.966 c-2.347-0.138-4.625-0.276-6.903-0.484h-0.069c-2.347-0.138-4.556-0.346-6.834-0.553c-9.527-0.828-18.708-1.864-27.614-3.175 c-2.347-0.276-4.625-0.69-6.903-1.035h-0.069c-2.347-0.346-4.556-0.76-6.834-1.174c-9.734-1.658-18.915-3.659-27.614-5.868 c-2.347-0.622-4.694-1.243-6.903-1.864h-0.069c-2.347-0.691-4.556-1.38-6.834-2.071c-10.217-3.106-19.537-6.627-27.614-10.424 c-2.416-1.104-4.694-2.278-6.903-3.521c0,0-0.069,0-0.069-0.069c-2.416-1.173-4.694-2.484-6.834-3.865 C8.56,402.554,0,391.646,0,380.118v-52.604H392.321z"/><path style="fill:#FCD462;" d="M392.321,327.514c0,11.529-8.491,22.367-23.54,31.756c-2.209,1.449-4.487,2.83-6.973,4.074 c-2.14,1.242-4.418,2.346-6.834,3.52c-8.077,3.797-17.397,7.249-27.614,10.424c-2.278,0.69-4.557,1.381-6.903,2.07h-0.069 c-2.209,0.622-4.487,1.244-6.834,1.864c-8.698,2.21-17.88,4.212-27.614,5.869c-2.278,0.415-4.556,0.828-6.903,1.173h-0.069 c-2.278,0.346-4.487,0.76-6.834,1.036c-8.905,1.312-18.087,2.347-27.614,3.176c-2.278,0.207-4.557,0.414-6.903,0.552h-0.069 c-2.278,0.206-4.487,0.345-6.834,0.483c-8.974,0.553-18.225,0.898-27.614,0.967c-2.278,0.069-4.556,0.069-6.903,0.069h-0.069 c-2.347,0-4.556,0-6.834-0.069c-9.389-0.068-18.639-0.414-27.614-0.967c-2.347-0.138-4.625-0.276-6.903-0.483h-0.069 c-2.347-0.138-4.556-0.345-6.834-0.552c-9.527-0.829-18.708-1.864-27.614-3.176c-2.347-0.276-4.625-0.69-6.903-1.036h-0.069 c-2.347-0.345-4.556-0.758-6.834-1.173c-9.734-1.657-18.915-3.659-27.614-5.869c-2.347-0.62-4.694-1.242-6.903-1.864h-0.069 c-2.347-0.689-4.556-1.38-6.834-2.07c-10.217-3.107-19.537-6.627-27.614-10.424c-2.416-1.105-4.694-2.278-6.903-3.52 c0,0-0.069,0-0.069-0.069c-2.416-1.175-4.694-2.486-6.834-3.866C8.56,349.95,0,339.043,0,327.514 c0-37.002,87.88-67.033,196.195-67.033S392.321,290.512,392.321,327.514z"/><path style="fill:#F6C358;" d="M195.592,375.815c-1.954,0-3.811-0.003-5.726-0.061c-9.034-0.07-17.982-0.384-27.04-0.939 c-2.207-0.131-4.293-0.256-6.378-0.442l-0.835-0.076h-0.326c-1.848-0.119-3.61-0.284-5.415-0.448 c-9.942-0.866-18.613-1.863-26.887-3.079c-1.905-0.232-3.229-0.451-4.543-0.665l-3.723-0.573c-1.387-0.226-4.912-0.872-4.912-0.872 c-8.899-1.512-17.454-3.329-26.366-5.591c-2.064-0.549-4.314-1.143-6.436-1.741l-6.552-1.97c-7.75-2.357-14.893-4.951-21.28-7.732 v-0.058l-10.393-5.067l-3.36-1.89h-0.137c-0.503-0.302-1.012-0.616-1.518-0.942c-11.146-7.009-15.034-13.064-15.034-16.155 c0-17.027,67.375-48.299,177.463-48.299c110.043,0,177.393,31.271,177.393,48.299c0,3.082-3.857,9.085-14.723,15.863 c-2.29,1.497-3.902,2.445-5.442,3.216l-1.027,0.555c-1.704,0.991-3.527,1.857-5.445,2.79c-6.835,3.213-15.317,6.405-25.152,9.463 l-6.485,1.927c-2.122,0.595-4.308,1.192-6.561,1.79c-8.72,2.21-17.271,4.027-25.954,5.506c-1.848,0.335-3.555,0.646-5.268,0.921 l-3.793,0.585c-1.244,0.204-2.485,0.415-3.78,0.567c-8.835,1.29-17.506,2.287-27.064,3.119c-1.979,0.18-3.899,0.354-5.86,0.482 l-1.162,0.076c-2.082,0.186-4.107,0.311-6.253,0.436c-9.113,0.561-18.061,0.875-26.655,0.936c-2.338,0.067-4.299,0.07-6.28,0.07 C196.522,375.815,195.769,375.815,195.592,375.815z"/><g> <path style="fill:#DC8744;" d="M37.416,366.863v52.604c-2.416-1.104-4.694-2.278-6.903-3.521c0,0-0.069,0-0.069-0.069 c-2.416-1.173-4.694-2.484-6.834-3.865v-52.604c2.14,1.38,4.418,2.692,6.834,3.866c0,0.069,0.069,0.069,0.069,0.069 C32.722,364.586,35,365.759,37.416,366.863z"/> <path style="fill:#DC8744;" d="M78.837,381.222v52.605c-2.347-0.622-4.694-1.243-6.903-1.864h-0.069 c-2.347-0.691-4.556-1.38-6.834-2.071v-52.604c2.278,0.69,4.487,1.381,6.834,2.07h0.069 C74.143,379.98,76.49,380.602,78.837,381.222z"/> <path style="fill:#DC8744;" d="M120.257,389.3v52.604c-2.347-0.276-4.625-0.69-6.903-1.035h-0.069 c-2.347-0.346-4.556-0.76-6.834-1.174v-52.604c2.278,0.415,4.487,0.828,6.834,1.173h0.069 C115.632,388.609,117.91,389.024,120.257,389.3z"/> <path style="fill:#DC8744;" d="M161.678,393.511v52.605c-2.347-0.138-4.625-0.276-6.903-0.484h-0.069 c-2.347-0.138-4.556-0.346-6.834-0.553v-52.603c2.278,0.207,4.487,0.414,6.834,0.552h0.069 C157.053,393.234,159.33,393.372,161.678,393.511z"/> <path style="fill:#DC8744;" d="M203.098,394.477v52.604c-2.278,0.069-4.556,0.069-6.903,0.069h-0.069c-2.347,0-4.556,0-6.834-0.069 v-52.604c2.278,0.069,4.487,0.069,6.834,0.069h0.069C198.542,394.546,200.82,394.546,203.098,394.477z"/> <path style="fill:#DC8744;" d="M244.519,392.476v52.603c-2.278,0.207-4.557,0.415-6.903,0.553h-0.069 c-2.278,0.207-4.487,0.346-6.834,0.484v-52.605c2.347-0.138,4.556-0.276,6.834-0.483h0.069 C239.962,392.889,242.24,392.683,244.519,392.476z"/> <path style="fill:#DC8744;" d="M285.939,387.091v52.604c-2.278,0.414-4.556,0.828-6.903,1.174h-0.069 c-2.278,0.345-4.487,0.758-6.834,1.035V389.3c2.347-0.276,4.556-0.69,6.834-1.036h0.069 C281.383,387.919,283.661,387.505,285.939,387.091z"/> <path style="fill:#DC8744;" d="M327.36,377.288v52.604c-2.278,0.691-4.557,1.38-6.903,2.071h-0.069 c-2.209,0.621-4.487,1.242-6.834,1.864v-52.605c2.347-0.62,4.625-1.242,6.834-1.864h0.069 C322.803,378.669,325.081,377.978,327.36,377.288z"/> <path style="fill:#DC8744;" d="M368.78,359.27v52.742c-2.14,1.312-4.418,2.692-6.903,3.935c0,0-0.069,0-0.069,0.069 c-2.14,1.174-4.418,2.279-6.834,3.452v-52.604c2.416-1.174,4.694-2.278,6.834-3.52C364.293,362.1,366.571,360.719,368.78,359.27z"/> </g><path style="fill:#F6C358;" d="M468.293,247.735v52.604c0,11.528-8.491,22.367-23.54,31.894c-2.14,1.312-4.418,2.692-6.903,3.935 c0,0-0.069,0-0.069,0.069c-2.14,1.174-4.418,2.279-6.834,3.452c-8.077,3.797-17.397,7.318-27.614,10.424 c-2.278,0.691-4.556,1.38-6.903,2.071h-0.069c-2.209,0.621-4.487,1.242-6.834,1.864c-8.698,2.209-17.88,4.21-27.614,5.868 c-2.278,0.414-4.556,0.828-6.903,1.174h-0.069c-2.278,0.345-4.487,0.758-6.834,1.035c-8.905,1.311-18.087,2.348-27.614,3.175 c-2.278,0.207-4.556,0.415-6.903,0.553h-0.069c-2.278,0.207-4.487,0.346-6.834,0.484c-8.974,0.551-18.225,0.897-27.614,0.966 c-2.278,0.069-4.556,0.069-6.903,0.069h-0.069c-2.347,0-4.556,0-6.834-0.069c-9.389-0.069-18.639-0.415-27.614-0.966 c-2.347-0.138-4.625-0.276-6.903-0.484h-0.069c-2.347-0.138-4.556-0.346-6.834-0.553c-9.527-0.828-18.708-1.864-27.614-3.175 c-2.347-0.276-4.625-0.69-6.903-1.035h-0.069c-2.347-0.346-4.556-0.76-6.834-1.174c-9.734-1.658-18.915-3.659-27.614-5.868 c-2.347-0.622-4.694-1.243-6.903-1.864h-0.069c-2.347-0.691-4.556-1.38-6.834-2.071c-10.217-3.106-19.537-6.627-27.614-10.424 c-2.416-1.104-4.694-2.278-6.903-3.521c0,0-0.069,0-0.069-0.069c-2.416-1.173-4.694-2.484-6.834-3.865 c-15.049-9.458-23.61-20.366-23.61-31.894v-52.604H468.293z"/><path style="fill:#FCD462;" d="M468.293,247.735c0,11.529-8.491,22.367-23.54,31.756c-2.209,1.449-4.487,2.83-6.973,4.074 c-2.14,1.242-4.418,2.346-6.834,3.52c-8.077,3.797-17.397,7.249-27.614,10.424c-2.278,0.69-4.556,1.381-6.903,2.071h-0.069 c-2.209,0.622-4.487,1.244-6.834,1.864c-8.698,2.21-17.88,4.212-27.614,5.869c-2.278,0.415-4.556,0.828-6.903,1.173h-0.069 c-2.278,0.346-4.487,0.76-6.834,1.036c-8.905,1.312-18.087,2.347-27.614,3.176c-2.278,0.207-4.556,0.414-6.903,0.552h-0.069 c-2.278,0.206-4.487,0.345-6.834,0.483c-8.974,0.553-18.225,0.898-27.614,0.967c-2.278,0.069-4.556,0.069-6.903,0.069h-0.069 c-2.347,0-4.556,0-6.834-0.069c-9.389-0.068-18.639-0.414-27.614-0.967c-2.347-0.138-4.625-0.276-6.903-0.483h-0.069 c-2.347-0.138-4.556-0.345-6.834-0.552c-9.527-0.829-18.708-1.864-27.614-3.176c-2.347-0.276-4.625-0.69-6.903-1.036h-0.069 c-2.347-0.345-4.556-0.758-6.834-1.173c-9.734-1.657-18.915-3.659-27.614-5.869c-2.347-0.62-4.694-1.242-6.903-1.864h-0.069 c-2.347-0.689-4.556-1.38-6.834-2.071c-10.217-3.107-19.537-6.627-27.614-10.424c-2.416-1.105-4.694-2.278-6.903-3.52 c0,0-0.069,0-0.069-0.069c-2.416-1.175-4.694-2.486-6.834-3.866c-15.049-9.458-23.61-20.365-23.61-31.894 c0-37.002,87.88-67.033,196.195-67.033S468.293,210.732,468.293,247.735z"/><path style="fill:#F6C358;" d="M271.553,296.035c-1.948,0-3.805-0.003-5.713-0.061c-9.091-0.07-18.037-0.384-27.034-0.939 c-2.204-0.131-4.284-0.253-6.36-0.442l-0.848-0.076h-0.348c-1.774-0.113-3.47-0.271-5.201-0.427 c-10.192-0.89-18.863-1.887-27.085-3.101c-1.912-0.232-3.235-0.451-4.552-0.665l-3.723-0.573c-1.43-0.232-4.918-0.869-4.918-0.869 c-8.936-1.524-17.488-3.341-26.351-5.595c-2.07-0.549-4.32-1.143-6.436-1.741l-6.546-1.963c-7.78-2.366-14.924-4.963-21.293-7.738 v-0.073l-10.445-5.076l-3.311-1.863h-0.131c-0.506-0.302-1.015-0.619-1.527-0.948c-11.14-7-15.027-13.055-15.027-16.149 c0-17.027,67.375-48.302,177.463-48.302c110.043,0,177.393,31.274,177.393,48.302c0,3.079-3.857,9.082-14.723,15.86 c-2.305,1.506-3.918,2.454-5.442,3.22l-1.012,0.546c-1.707,0.991-3.534,1.86-5.457,2.793c-6.845,3.22-15.32,6.412-25.152,9.466 c-1.796,0.543-6.488,1.927-6.488,1.927c-2.122,0.595-4.308,1.192-6.561,1.79c-8.677,2.204-17.229,4.021-25.96,5.509 c-1.838,0.335-3.54,0.643-5.25,0.915l-3.82,0.591c-1.238,0.204-2.476,0.412-3.765,0.564c-8.79,1.287-17.457,2.284-27.064,3.119 c-1.991,0.183-3.899,0.357-5.851,0.482l-1.195,0.076c-2.076,0.189-4.091,0.311-6.229,0.436c-9.058,0.561-18.003,0.875-26.655,0.936 c-2.338,0.067-4.299,0.07-6.28,0.07C272.495,296.035,271.732,296.035,271.553,296.035z"/><g> <path style="fill:#DC8744;" d="M113.388,287.084v52.604c-2.416-1.104-4.694-2.278-6.903-3.521c0,0-0.069,0-0.069-0.069 c-2.416-1.173-4.694-2.484-6.834-3.865v-52.604c2.14,1.38,4.418,2.692,6.834,3.866c0,0.069,0.069,0.069,0.069,0.069 C108.694,284.806,110.972,285.979,113.388,287.084z"/> <path style="fill:#DC8744;" d="M154.809,301.443v52.605c-2.347-0.622-4.694-1.243-6.903-1.864h-0.069 c-2.347-0.691-4.556-1.38-6.834-2.071v-52.604c2.278,0.69,4.487,1.381,6.834,2.071h0.069 C150.115,300.2,152.462,300.822,154.809,301.443z"/> <path style="fill:#DC8744;" d="M196.229,309.52v52.604c-2.347-0.276-4.625-0.69-6.903-1.035h-0.069 c-2.347-0.346-4.556-0.76-6.834-1.174v-52.604c2.278,0.415,4.487,0.828,6.834,1.173h0.069 C191.604,308.83,193.882,309.244,196.229,309.52z"/> <path style="fill:#DC8744;" d="M237.65,313.731v52.605c-2.347-0.138-4.625-0.276-6.903-0.484h-0.069 c-2.347-0.138-4.556-0.346-6.834-0.553v-52.603c2.278,0.207,4.487,0.414,6.834,0.552h0.069 C233.025,313.454,235.303,313.593,237.65,313.731z"/> <path style="fill:#DC8744;" d="M279.07,314.697v52.604c-2.278,0.069-4.556,0.069-6.903,0.069h-0.069c-2.347,0-4.556,0-6.834-0.069 v-52.604c2.278,0.069,4.487,0.069,6.834,0.069h0.069C274.514,314.766,276.792,314.766,279.07,314.697z"/> <path style="fill:#DC8744;" d="M320.491,312.696v52.603c-2.278,0.207-4.556,0.415-6.903,0.553h-0.069 c-2.278,0.207-4.487,0.346-6.834,0.484v-52.605c2.347-0.138,4.556-0.276,6.834-0.483h0.069 C315.934,313.11,318.213,312.903,320.491,312.696z"/> <path style="fill:#DC8744;" d="M361.911,307.311v52.604c-2.278,0.414-4.556,0.828-6.903,1.174h-0.069 c-2.278,0.345-4.487,0.758-6.834,1.035V309.52c2.347-0.276,4.556-0.69,6.834-1.036h0.069 C357.355,308.139,359.633,307.726,361.911,307.311z"/> <path style="fill:#DC8744;" d="M403.332,297.508v52.604c-2.278,0.691-4.556,1.38-6.903,2.071h-0.069 c-2.209,0.621-4.487,1.242-6.834,1.864v-52.605c2.347-0.62,4.625-1.242,6.834-1.864h0.069 C398.775,298.889,401.053,298.198,403.332,297.508z"/> <path style="fill:#DC8744;" d="M444.752,279.49v52.742c-2.14,1.312-4.418,2.692-6.903,3.935c0,0-0.069,0-0.069,0.069 c-2.14,1.174-4.418,2.279-6.834,3.452v-52.604c2.416-1.174,4.694-2.278,6.834-3.52C440.265,282.32,442.543,280.94,444.752,279.49z"/> </g><path style="fill:#F6C358;" d="M392.321,167.955v52.604c0,11.528-8.491,22.367-23.54,31.894c-2.14,1.312-4.418,2.692-6.903,3.935 c0,0-0.069,0-0.069,0.069c-2.14,1.174-4.418,2.279-6.834,3.452c-8.077,3.797-17.397,7.318-27.614,10.424 c-2.278,0.691-4.557,1.38-6.903,2.071h-0.069c-2.209,0.621-4.487,1.242-6.834,1.864c-8.698,2.209-17.88,4.21-27.614,5.868 c-2.278,0.414-4.556,0.828-6.903,1.174h-0.069c-2.278,0.345-4.487,0.758-6.834,1.035c-8.905,1.311-18.087,2.348-27.614,3.175 c-2.278,0.207-4.557,0.415-6.903,0.553h-0.069c-2.278,0.207-4.487,0.346-6.834,0.484c-8.974,0.551-18.225,0.897-27.614,0.966 c-2.278,0.069-4.556,0.069-6.903,0.069h-0.069c-2.347,0-4.556,0-6.834-0.069c-9.389-0.069-18.639-0.415-27.614-0.966 c-2.347-0.138-4.625-0.276-6.903-0.484h-0.069c-2.347-0.138-4.556-0.346-6.834-0.553c-9.527-0.828-18.708-1.864-27.614-3.175 c-2.347-0.276-4.625-0.69-6.903-1.035h-0.069c-2.347-0.345-4.556-0.76-6.834-1.174c-9.734-1.658-18.915-3.659-27.614-5.868 c-2.347-0.622-4.694-1.243-6.903-1.864h-0.069c-2.347-0.691-4.556-1.38-6.834-2.071c-10.217-3.106-19.537-6.627-27.614-10.424 c-2.416-1.104-4.694-2.278-6.903-3.521c0,0-0.069,0-0.069-0.069c-2.416-1.173-4.694-2.484-6.834-3.865 C8.56,242.995,0,232.087,0,220.559v-52.604H392.321z"/><path style="fill:#FCD462;" d="M392.321,167.955c0,11.529-8.491,22.367-23.54,31.756c-2.209,1.449-4.487,2.83-6.973,4.074 c-2.14,1.242-4.418,2.346-6.834,3.52c-8.077,3.797-17.397,7.249-27.614,10.424c-2.278,0.69-4.557,1.381-6.903,2.07h-0.069 c-2.209,0.622-4.487,1.244-6.834,1.864c-8.698,2.21-17.88,4.212-27.614,5.869c-2.278,0.415-4.556,0.828-6.903,1.173h-0.069 c-2.278,0.346-4.487,0.76-6.834,1.036c-8.905,1.312-18.087,2.347-27.614,3.176c-2.278,0.207-4.557,0.414-6.903,0.552h-0.069 c-2.278,0.206-4.487,0.345-6.834,0.483c-8.974,0.553-18.225,0.898-27.614,0.967c-2.278,0.069-4.556,0.069-6.903,0.069h-0.069 c-2.347,0-4.556,0-6.834-0.069c-9.389-0.068-18.639-0.414-27.614-0.967c-2.347-0.138-4.625-0.276-6.903-0.483h-0.069 c-2.347-0.138-4.556-0.345-6.834-0.552c-9.527-0.829-18.708-1.864-27.614-3.176c-2.347-0.276-4.625-0.69-6.903-1.036h-0.069 c-2.347-0.345-4.556-0.758-6.834-1.173c-9.734-1.657-18.915-3.659-27.614-5.869c-2.347-0.62-4.694-1.242-6.903-1.864h-0.069 c-2.347-0.689-4.556-1.38-6.834-2.07c-10.217-3.107-19.537-6.627-27.614-10.424c-2.416-1.105-4.694-2.278-6.903-3.52 c0,0-0.069,0-0.069-0.069c-2.416-1.175-4.694-2.486-6.834-3.866C8.56,190.391,0,179.484,0,167.955 c0-37.002,87.88-67.033,196.195-67.033S392.321,130.953,392.321,167.955z"/><path style="fill:#F6C358;" d="M195.604,216.254c-1.966,0-3.835-0.003-5.762-0.058c-9.061-0.073-18.009-0.387-27.015-0.939 c-2.183-0.131-4.268-0.253-6.354-0.445l-0.848-0.076h-0.348c-1.774-0.113-3.47-0.271-5.201-0.427 c-10.192-0.89-18.863-1.887-27.085-3.101c-1.893-0.232-3.198-0.445-4.497-0.655l-3.774-0.579c-1.387-0.226-4.912-0.872-4.912-0.872 c-8.912-1.515-17.463-3.332-26.36-5.595c-2.082-0.549-4.326-1.143-6.442-1.738l-6.53-1.966c-7.78-2.366-14.927-4.96-21.302-7.738 v-0.073L38.72,186.91l-3.308-1.857h-0.125c-0.506-0.302-1.012-0.616-1.521-0.942c-11.146-7.009-15.034-13.064-15.034-16.155 c0-17.027,67.375-48.302,177.463-48.302c110.043,0,177.393,31.274,177.393,48.302c0,3.079-3.857,9.082-14.723,15.866 c-2.302,1.5-3.921,2.451-5.442,3.213l-1.012,0.546c-1.707,0.991-3.534,1.86-5.457,2.793c-6.845,3.22-15.32,6.412-25.152,9.466 l-6.488,1.93c-2.116,0.595-4.293,1.189-6.537,1.78c-8.732,2.22-17.284,4.037-25.979,5.515c-1.887,0.341-3.631,0.662-5.378,0.939 l-3.729,0.573c-1.229,0.201-2.457,0.409-3.735,0.558c-8.79,1.287-17.457,2.284-27.064,3.119c-1.976,0.18-3.893,0.357-5.848,0.482 l-1.198,0.076c-2.082,0.189-4.107,0.314-6.253,0.442c-9.037,0.555-17.985,0.869-26.637,0.933c-2.32,0.064-4.293,0.067-6.284,0.067 C196.516,216.254,195.778,216.254,195.604,216.254z"/><g> <path style="fill:#DC8744;" d="M37.416,207.304v52.604c-2.416-1.104-4.694-2.278-6.903-3.521c0,0-0.069,0-0.069-0.069 c-2.416-1.173-4.694-2.484-6.834-3.865v-52.604c2.14,1.38,4.418,2.692,6.834,3.866c0,0.069,0.069,0.069,0.069,0.069 C32.722,205.026,35,206.199,37.416,207.304z"/> <path style="fill:#DC8744;" d="M78.837,221.663v52.605c-2.347-0.622-4.694-1.243-6.903-1.864h-0.069 c-2.347-0.691-4.556-1.38-6.834-2.071v-52.604c2.278,0.69,4.487,1.381,6.834,2.07h0.069 C74.143,220.421,76.49,221.043,78.837,221.663z"/> <path style="fill:#DC8744;" d="M120.257,229.74v52.604c-2.347-0.276-4.625-0.69-6.903-1.035h-0.069 c-2.347-0.345-4.556-0.76-6.834-1.174v-52.604c2.278,0.415,4.487,0.828,6.834,1.173h0.069 C115.632,229.05,117.91,229.465,120.257,229.74z"/> <path style="fill:#DC8744;" d="M161.678,233.951v52.605c-2.347-0.138-4.625-0.276-6.903-0.484h-0.069 c-2.347-0.138-4.556-0.346-6.834-0.553v-52.603c2.278,0.207,4.487,0.414,6.834,0.552h0.069 C157.053,233.675,159.33,233.813,161.678,233.951z"/> <path style="fill:#DC8744;" d="M203.098,234.918v52.604c-2.278,0.069-4.556,0.069-6.903,0.069h-0.069c-2.347,0-4.556,0-6.834-0.069 v-52.604c2.278,0.069,4.487,0.069,6.834,0.069h0.069C198.542,234.987,200.82,234.987,203.098,234.918z"/> <path style="fill:#DC8744;" d="M244.519,232.916v52.603c-2.278,0.207-4.557,0.415-6.903,0.553h-0.069 c-2.278,0.207-4.487,0.346-6.834,0.484v-52.605c2.347-0.138,4.556-0.276,6.834-0.483h0.069 C239.962,233.33,242.24,233.124,244.519,232.916z"/> <path style="fill:#DC8744;" d="M285.939,227.531v52.604c-2.278,0.414-4.556,0.828-6.903,1.174h-0.069 c-2.278,0.345-4.487,0.758-6.834,1.035V229.74c2.347-0.276,4.556-0.69,6.834-1.036h0.069 C281.383,228.36,283.661,227.946,285.939,227.531z"/> <path style="fill:#DC8744;" d="M327.36,217.728v52.604c-2.278,0.691-4.557,1.38-6.903,2.071h-0.069 c-2.209,0.621-4.487,1.242-6.834,1.864v-52.605c2.347-0.62,4.625-1.242,6.834-1.864h0.069 C322.803,219.109,325.081,218.418,327.36,217.728z"/> <path style="fill:#DC8744;" d="M368.78,199.71v52.742c-2.14,1.312-4.418,2.692-6.903,3.935c0,0-0.069,0-0.069,0.069 c-2.14,1.174-4.418,2.279-6.834,3.452v-52.604c2.416-1.174,4.694-2.278,6.834-3.52C364.293,202.54,366.571,201.16,368.78,199.71z"/> </g><path style="fill:#F6C358;" d="M468.293,88.175v52.604c0,11.528-8.491,22.367-23.54,31.894c-2.14,1.312-4.418,2.692-6.903,3.935 c0,0-0.069,0-0.069,0.069c-2.14,1.174-4.418,2.279-6.834,3.452c-8.077,3.797-17.397,7.318-27.614,10.424 c-2.278,0.691-4.556,1.38-6.903,2.071h-0.069c-2.209,0.621-4.487,1.242-6.834,1.864c-8.698,2.209-17.88,4.21-27.614,5.868 c-2.278,0.414-4.556,0.828-6.903,1.174h-0.069c-2.278,0.345-4.487,0.758-6.834,1.035c-8.905,1.311-18.087,2.348-27.614,3.175 c-2.278,0.207-4.556,0.415-6.903,0.553h-0.069c-2.278,0.207-4.487,0.346-6.834,0.484c-8.974,0.551-18.225,0.897-27.614,0.966 c-2.278,0.069-4.556,0.069-6.903,0.069h-0.069c-2.347,0-4.556,0-6.834-0.069c-9.389-0.069-18.639-0.415-27.614-0.966 c-2.347-0.138-4.625-0.276-6.903-0.484h-0.069c-2.347-0.138-4.556-0.346-6.834-0.553c-9.527-0.828-18.708-1.864-27.614-3.175 c-2.347-0.276-4.625-0.69-6.903-1.035h-0.069c-2.347-0.345-4.556-0.76-6.834-1.174c-9.734-1.658-18.915-3.659-27.614-5.868 c-2.347-0.622-4.694-1.243-6.903-1.864h-0.069c-2.347-0.691-4.556-1.38-6.834-2.071c-10.217-3.106-19.537-6.627-27.614-10.424 c-2.416-1.104-4.694-2.278-6.903-3.521c0,0-0.069,0-0.069-0.069c-2.416-1.173-4.694-2.484-6.834-3.865 c-15.049-9.458-23.61-20.366-23.61-31.894V88.175H468.293z"/><path style="fill:#FCD462;" d="M468.293,88.175c0,11.529-8.491,22.367-23.54,31.756c-2.209,1.449-4.487,2.83-6.973,4.074 c-2.14,1.242-4.418,2.346-6.834,3.52c-8.077,3.797-17.397,7.249-27.614,10.424c-2.278,0.69-4.556,1.381-6.903,2.071h-0.069 c-2.209,0.622-4.487,1.244-6.834,1.864c-8.698,2.21-17.88,4.212-27.614,5.869c-2.278,0.415-4.556,0.828-6.903,1.173h-0.069 c-2.278,0.346-4.487,0.76-6.834,1.036c-8.905,1.312-18.087,2.347-27.614,3.176c-2.278,0.207-4.556,0.414-6.903,0.552h-0.069 c-2.278,0.206-4.487,0.345-6.834,0.483c-8.974,0.553-18.225,0.898-27.614,0.967c-2.278,0.069-4.556,0.069-6.903,0.069h-0.069 c-2.347,0-4.556,0-6.834-0.069c-9.389-0.068-18.639-0.414-27.614-0.967c-2.347-0.138-4.625-0.276-6.903-0.483h-0.069 c-2.347-0.138-4.556-0.345-6.834-0.552c-9.527-0.829-18.708-1.864-27.614-3.176c-2.347-0.276-4.625-0.69-6.903-1.036h-0.069 c-2.347-0.345-4.556-0.758-6.834-1.173c-9.734-1.657-18.915-3.659-27.614-5.869c-2.347-0.62-4.694-1.242-6.903-1.864h-0.069 c-2.347-0.689-4.556-1.38-6.834-2.071c-10.217-3.107-19.537-6.627-27.614-10.424c-2.416-1.105-4.694-2.278-6.903-3.52 c0,0-0.069,0-0.069-0.069c-2.416-1.175-4.694-2.486-6.834-3.866c-15.049-9.458-23.61-20.365-23.61-31.894 c0-37.002,87.88-67.033,196.195-67.033S468.293,51.173,468.293,88.175z"/><path style="fill:#F6C358;" d="M271.553,136.477c-1.948,0-3.805-0.003-5.713-0.061c-9.085-0.073-18.034-0.387-27.04-0.939 c-2.198-0.131-4.277-0.256-6.354-0.445l-0.848-0.076h-0.348c-1.774-0.113-3.47-0.271-5.201-0.427 c-10.18-0.89-18.851-1.887-27.091-3.098c-1.86-0.229-3.162-0.445-4.457-0.652l-3.808-0.585c-1.378-0.223-4.921-0.872-4.921-0.872 c-8.905-1.515-17.457-3.332-26.351-5.595c-2.082-0.549-4.326-1.143-6.436-1.738l-6.567-1.97c-7.75-2.357-14.89-4.954-21.271-7.732 v-0.076l-10.445-5.076l-3.311-1.863h-0.134c-0.503-0.299-1.006-0.613-1.506-0.936c-11.159-7.012-15.046-13.067-15.046-16.162 c0-17.027,67.375-48.302,177.463-48.302c110.043,0,177.393,31.274,177.393,48.302c0,3.079-3.857,9.082-14.723,15.866 c-2.302,1.5-3.921,2.451-5.442,3.213l-1.012,0.546c-1.738,1.009-3.601,1.893-5.561,2.848c-6.735,3.165-15.216,6.357-25.052,9.415 l-6.485,1.927c-2.116,0.595-4.293,1.189-6.537,1.78c-8.732,2.22-17.284,4.037-25.979,5.515c-1.912,0.348-3.649,0.665-5.39,0.939 l-3.762,0.579c-1.223,0.201-2.442,0.405-3.713,0.555c-8.774,1.287-17.448,2.28-27.04,3.116c-1.991,0.183-3.899,0.357-5.851,0.482 l-1.195,0.076c-2.076,0.189-4.091,0.314-6.229,0.439c-9.061,0.558-18.009,0.872-26.662,0.936c-2.332,0.067-4.293,0.07-6.274,0.07 C272.495,136.477,271.732,136.477,271.553,136.477z"/><g> <path style="fill:#DC8744;" d="M113.388,127.524v52.604c-2.416-1.104-4.694-2.278-6.903-3.521c0,0-0.069,0-0.069-0.069 c-2.416-1.173-4.694-2.484-6.834-3.865v-52.604c2.14,1.38,4.418,2.692,6.834,3.866c0,0.069,0.069,0.069,0.069,0.069 C108.694,125.246,110.972,126.42,113.388,127.524z"/> <path style="fill:#DC8744;" d="M154.809,141.883v52.605c-2.347-0.622-4.694-1.243-6.903-1.864h-0.069 c-2.347-0.691-4.556-1.38-6.834-2.071v-52.604c2.278,0.69,4.487,1.381,6.834,2.071h0.069 C150.115,140.641,152.462,141.263,154.809,141.883z"/> <path style="fill:#DC8744;" d="M196.229,149.96v52.604c-2.347-0.276-4.625-0.69-6.903-1.035h-0.069 c-2.347-0.345-4.556-0.76-6.834-1.174v-52.604c2.278,0.415,4.487,0.828,6.834,1.173h0.069 C191.604,149.27,193.882,149.685,196.229,149.96z"/> <path style="fill:#DC8744;" d="M237.65,154.171v52.605c-2.347-0.138-4.625-0.276-6.903-0.484h-0.069 c-2.347-0.138-4.556-0.346-6.834-0.553v-52.603c2.278,0.207,4.487,0.414,6.834,0.552h0.069 C233.025,153.895,235.303,154.033,237.65,154.171z"/> <path style="fill:#DC8744;" d="M279.07,155.138v52.604c-2.278,0.069-4.556,0.069-6.903,0.069h-0.069c-2.347,0-4.556,0-6.834-0.069 v-52.604c2.278,0.069,4.487,0.069,6.834,0.069h0.069C274.514,155.207,276.792,155.207,279.07,155.138z"/> <path style="fill:#DC8744;" d="M320.491,153.137v52.603c-2.278,0.207-4.556,0.415-6.903,0.553h-0.069 c-2.278,0.207-4.487,0.346-6.834,0.484v-52.605c2.347-0.138,4.556-0.276,6.834-0.483h0.069 C315.934,153.55,318.213,153.344,320.491,153.137z"/> <path style="fill:#DC8744;" d="M361.911,147.752v52.604c-2.278,0.414-4.556,0.828-6.903,1.174h-0.069 c-2.278,0.345-4.487,0.758-6.834,1.035V149.96c2.347-0.276,4.556-0.69,6.834-1.036h0.069 C357.355,148.58,359.633,148.166,361.911,147.752z"/> <path style="fill:#DC8744;" d="M403.332,137.949v52.604c-2.278,0.691-4.556,1.38-6.903,2.071h-0.069 c-2.209,0.621-4.487,1.242-6.834,1.864v-52.605c2.347-0.62,4.625-1.242,6.834-1.864h0.069 C398.775,139.33,401.053,138.639,403.332,137.949z"/> <path style="fill:#DC8744;" d="M444.752,119.931v52.742c-2.14,1.312-4.418,2.692-6.903,3.935c0,0-0.069,0-0.069,0.069 c-2.14,1.174-4.418,2.279-6.834,3.452v-52.604c2.416-1.174,4.694-2.278,6.834-3.52C440.265,122.76,442.543,121.38,444.752,119.931z "/> </g></symbol><symbol id="keyword" viewBox="0 0 511.999 511.999"><title>در دسترس</title><polygon style="fill:#FCD577;" points="329.701,402.188 329.701,444.838 357.859,444.838 357.859,484.341 265.369,484.341 265.369,362.673 357.859,362.673 357.859,402.188 "/><rect x="265.376" y="362.671" style="fill:#EAC36E;" width="27.102" height="121.669"/><path style="fill:#FCD577;" d="M369.489,28.247C350.476,10.032,325.495,0,299.148,0h-86.295c-26.348,0-51.329,10.032-70.342,28.247 c-19.334,18.523-30.245,43.343-30.724,69.889c-0.488,27.026,9.684,52.54,28.643,71.845c18.964,19.309,44.286,29.943,71.301,29.943 h24.576v312.074h39.384V199.926h24.573c27.016,0,52.339-10.634,71.303-29.943c18.959-19.304,29.132-44.819,28.644-71.845 C399.734,71.592,388.823,46.77,369.489,28.247z M300.266,163.053h-88.534c-35.173,0-63.715-28.933-63.079-64.25 c0.624-34.573,29.619-61.93,64.199-61.93h86.295c34.58,0,63.574,27.356,64.199,61.93 C363.983,134.12,335.439,163.053,300.266,163.053z"/></symbol><symbol id="diversity" viewBox="0 0 510 510"><title>متنوع</title><g> <circle style="fill:#FF836D;" cx="296.25" cy="421.875" r="15"/> </g><g> <circle style="fill:#FF836D;" cx="418.125" cy="328.125" r="15"/> </g><g> <circle style="fill:#FF836D;" cx="487.5" cy="90" r="15"/> </g><g> <circle style="fill:#FF836D;" cx="283.125" cy="31.875" r="15"/> </g><g> <circle style="fill:#FF836D;" cx="24.375" cy="22.5" r="15"/> </g><g> <circle style="fill:#BABAF2;" cx="50.625" cy="352.5" r="22.5"/> </g><g> <circle style="fill:#BABAF2;" cx="148.125" cy="478.125" r="22.5"/> </g><g> <circle style="fill:#BABAF2;" cx="161.25" cy="90" r="22.5"/> </g><g> <circle style="fill:#BABAF2;" cx="420" cy="170.625" r="22.5"/> </g><g> <circle style="fill:#00A1DA;" cx="247.5" cy="240" r="30"/> </g><path d="M487.5,67.798c-12.406,0-22.5,10.093-22.5,22.5c0,4.739,1.476,9.137,3.988,12.768l-34.323,43.277 c-4.339-2.442-9.34-3.843-14.664-3.843c-16.542,0-30,13.458-30,30c0,1.577,0.124,3.126,0.36,4.638l-112.836,40.419 c-6.846-9.135-17.756-15.057-30.024-15.057c-4.026,0-7.903,0.645-11.541,1.825l-50.518-94.301 c4.774-5.315,7.684-12.335,7.684-20.024c0-1.331-0.096-2.64-0.265-3.926l71.711-39.115c4.12,4.552,10.071,7.416,16.679,7.416 c12.406,0,22.5-10.093,22.5-22.5s-10.094-22.5-22.5-22.5s-22.5,10.093-22.5,22.5c0,0.388,0.01,0.773,0.029,1.157l-71.603,39.056 C181.701,64.756,172.958,60,163.125,60c-9.082,0-17.228,4.062-22.733,10.458l-96.15-42.171C44.734,26.439,45,24.5,45,22.5 C45,10.093,34.906,0,22.5,0S0,10.093,0,22.5S10.094,45,22.5,45c4.846,0,9.336-1.545,13.013-4.162l98.232,43.084 c-0.406,1.963-0.62,3.996-0.62,6.078c0,16.542,13.458,30,30,30c3.418,0,6.701-0.583,9.764-1.64l50.018,93.367 c-7.9,6.88-12.907,17-12.907,28.274c0,3.175,0.4,6.258,1.146,9.205L70.515,330.068c-5.299-4.703-12.264-7.568-19.89-7.568 c-16.542,0-30,13.458-30,30s13.458,30,30,30c2.82,0,5.546-0.399,8.135-1.13l63.865,82.851c-2.849,4.587-4.5,9.993-4.5,15.779 c0,16.542,13.458,30,30,30s30-13.458,30-30c0-1.014-0.052-2.016-0.151-3.004L280.33,437.76c4.076,4.084,9.708,6.615,15.92,6.615 c12.406,0,22.5-10.093,22.5-22.5s-10.094-22.5-22.5-22.5s-22.5,10.093-22.5,22.5c0,0.776,0.04,1.542,0.116,2.298l-101.094,38.753 C167.35,455.123,158.327,450,148.125,450c-5.295,0-10.27,1.384-14.592,3.801l-61.726-80.077c5.445-5.434,8.818-12.942,8.818-21.224 c0-3.491-0.606-6.842-1.707-9.961l138.788-79.803c6.858,8.966,17.659,14.764,29.794,14.764c20.678,0,37.5-16.822,37.5-37.5 c0-3.035-0.372-5.983-1.055-8.81l112.406-40.265c3.621,4.638,8.571,8.185,14.274,10.067v105.923c-8.729,3.096-15,11.433-15,21.21 c0,12.407,10.094,22.5,22.5,22.5s22.5-10.093,22.5-22.5c0-9.777-6.271-18.114-15-21.21V201.963 C439.487,199.322,450,187.119,450,172.5c0-5.763-1.637-11.149-4.465-15.725l35.608-44.897c2.017,0.595,4.149,0.92,6.357,0.92 c12.406,0,22.5-10.093,22.5-22.5S499.906,67.798,487.5,67.798z M281.25,24.375c4.136,0,7.5,3.364,7.5,7.5s-3.364,7.5-7.5,7.5 s-7.5-3.364-7.5-7.5S277.114,24.375,281.25,24.375z M22.5,30c-4.136,0-7.5-3.364-7.5-7.5s3.364-7.5,7.5-7.5s7.5,3.364,7.5,7.5 S26.636,30,22.5,30z M148.125,90c0-8.271,6.729-15,15-15s15,6.729,15,15s-6.729,15-15,15S148.125,98.271,148.125,90z M296.25,414.375c4.136,0,7.5,3.364,7.5,7.5s-3.364,7.5-7.5,7.5s-7.5-3.364-7.5-7.5S292.114,414.375,296.25,414.375z M148.125,465 c8.271,0,15,6.729,15,15s-6.729,15-15,15s-15-6.729-15-15S139.854,465,148.125,465z M35.625,352.5c0-8.271,6.729-15,15-15 s15,6.729,15,15s-6.729,15-15,15S35.625,360.771,35.625,352.5z M247.5,262.5c-12.406,0-22.5-10.093-22.5-22.5 s10.094-22.5,22.5-22.5S270,227.593,270,240S259.906,262.5,247.5,262.5z M418.125,335.625c-4.136,0-7.5-3.364-7.5-7.5 s3.364-7.5,7.5-7.5s7.5,3.364,7.5,7.5S422.261,335.625,418.125,335.625z M420,187.5c-8.271,0-15-6.729-15-15s6.729-15,15-15 s15,6.729,15,15S428.271,187.5,420,187.5z M487.5,97.798c-4.136,0-7.5-3.364-7.5-7.5s3.364-7.5,7.5-7.5s7.5,3.364,7.5,7.5 S491.636,97.798,487.5,97.798z"/></symbol><symbol id="question" viewBox="0 0 512 512"><title>پرسش و پاسخ</title><path d="m256 392-30 60 30 60c33.137 0 60-26.863 60-60s-26.863-60-60-60z" fill="#0a77e8"/><path d="m196 452c0 33.137 26.863 60 60 60v-120c-33.137 0-60 26.863-60 60z" fill="#0f9af0"/><path d="m256 0-60 60 60 60c19.851 0 36 16.149 36 36 0 10.578-4.643 20.59-12.74 27.471l-23.26 19.775-40 79.377 40 79.377h60v-52.258l40.976-34.837c34.968-29.714 55.024-73.052 55.024-118.905 0-86.019-69.981-156-156-156z" fill="#0a77e8"/><g fill="#0f9af0"><path d="m196 254.258v107.742h60v-158.754z"/><path d="m100 156v15h120v-15c0-19.851 16.149-36 36-36v-120c-86.019 0-156 69.981-156 156z"/></g></symbol><symbol id="rising" viewBox="1 -1 511.99998 511"><title>پویا</title><path d="m79.296875 300.792969h-66.066406c-7.308594 0-13.230469 5.921875-13.230469 13.230469v196.398437h92.527344v-196.398437c0-7.308594-5.925782-13.230469-13.230469-13.230469zm0 0" fill="#49c3e0"/><path d="m44.136719 300.792969h-30.90625c-7.308594 0-13.230469 5.921875-13.230469 13.230469v196.394531h30.90625v-196.394531c0-7.308594 5.921875-13.230469 13.230469-13.230469zm0 0" fill="#00a5c6"/><path d="m219.121094 248.980469h-66.066406c-7.308594 0-13.230469 5.921875-13.230469 13.230469v248.210937h92.527343v-248.210937c0-7.308594-5.925781-13.230469-13.230468-13.230469zm0 0" fill="#3ac7b4"/><path d="m183.960938 248.980469h-30.90625c-7.308594 0-13.230469 5.921875-13.230469 13.230469v248.210937h30.90625v-248.210937c0-7.308594 5.921875-13.230469 13.230469-13.230469zm0 0" fill="#00ad94"/><path d="m358.945312 197.167969h-66.066406c-7.304687 0-13.230468 5.921875-13.230468 13.230469v300.019531h92.527343v-300.019531c0-7.308594-5.921875-13.230469-13.230469-13.230469zm0 0" fill="#ffcd38"/><path d="m323.785156 197.167969h-30.90625c-7.304687 0-13.230468 5.925781-13.230468 13.230469v300.023437h30.90625v-300.023437c0-7.308594 5.925781-13.230469 13.230468-13.230469zm0 0" fill="#e7b835"/><path d="m498.769531 145.355469h-66.066406c-7.304687 0-13.226563 5.921875-13.226563 13.230469v351.832031h92.523438v-351.832031c0-7.308594-5.921875-13.230469-13.230469-13.230469zm0 0" fill="#ff8c57"/><path d="m463.609375 145.355469h-30.90625c-7.304687 0-13.230469 5.921875-13.230469 13.230469v351.835937h30.90625v-351.835937c0-7.308594 5.925782-13.230469 13.230469-13.230469zm0 0" fill="#ec6a34"/><path d="m488.207031 3.464844-83.589843-2.960938c-6.910157-.242187-11.140626 7.503906-7.195313 13.1875l13.484375 19.40625c-45.398438 27.199219-190.671875 103.664063-388.574219 103.664063v55.515625c134.109375 0 244.898438-33.214844 314.222657-61.078125 50.71875-20.386719 87.082031-40.785157 106.09375-52.398438l11.957031 17.214844c3.945312 5.679687 12.683593 4.421875 14.867187-2.140625l26.40625-79.363281c1.769532-5.320313-2.070312-10.847657-7.671875-11.046875zm0 0" fill="#da5b65"/></symbol><symbol id="teamwork" viewBox="0 0 512 512"><title>منعطف</title><circle style="fill:#F9EED7;" cx="256" cy="256" r="256"/><path style="fill:#FF525D;" d="M166.817,181.663L166.817,181.663c0,34.495-27.964,62.459-62.459,62.459H77.345 c-34.495,0-62.459-27.964-62.459-62.459l0,0c0-4.869,2.736-9.326,7.078-11.529l19.122-9.704 c10.781-5.471,22.421-9.053,34.414-10.589l15.35-1.966l4.637,0.593h0.003l10.71,1.372c11.993,1.536,23.635,5.119,34.417,10.591 l19.123,9.705C164.081,172.338,166.817,176.794,166.817,181.663z"/><g> <path style="fill:#E5BFA3;" d="M114.341,126.726v25.233c0,12.972-10.517,23.489-23.489,23.489l0,0 c-12.972,0-23.489-10.517-23.489-23.489v-25.233C67.362,126.726,114.341,126.726,114.341,126.726z"/> <circle style="fill:#E5BFA3;" cx="40.145" cy="85.452" r="14.518"/> <circle style="fill:#E5BFA3;" cx="141.563" cy="85.452" r="14.518"/> </g><path style="fill:#F9D6B9;" d="M143.152,44.006L38.55,38.438v58.347c0,28.885,23.416,52.3,52.3,52.3l0,0 c28.885,0,52.3-23.416,52.3-52.3V44.006H143.152z"/><path style="fill:#E5BFA3;" d="M59.42,96.785V39.548l-20.87-1.111v58.347c0,28.885,23.416,52.3,52.3,52.3l0,0 c3.574,0,7.062-0.36,10.434-1.044C77.402,143.205,59.42,122.095,59.42,96.785z"/><path style="fill:#C98847;" d="M149.515,42.052v26.347c0,2.142-0.867,4.081-2.27,5.484c-1.442,1.445-3.452,2.32-5.661,2.27 c-4.24-0.095-7.579-3.67-7.579-7.91v-3.983c0-3.156-1.278-6.008-3.347-8.077c-2.068-2.068-4.921-3.347-8.077-3.347 c-4.921,0-9.71,1.652-13.547,4.739c-4.975,4.001-11.298,6.398-18.184,6.398c-6.884,0-13.208-2.397-18.182-6.398 c-0.657-0.531-1.345-1.016-2.055-1.459c-0.008-0.008-0.019-0.014-0.026-0.019c-1.352-0.843-2.79-1.528-4.285-2.05 c-2.297-0.798-4.723-1.212-7.186-1.212c-6.306,0-11.418,5.12-11.418,11.428v4.137c0,2.14-0.867,4.081-2.273,5.484 c-1.402,1.402-3.341,2.27-5.484,2.27c-4.282,0-7.753-3.471-7.753-7.756V42.052c0-23.069,18.699-41.771,41.769-41.771h33.787 C130.814,0.281,149.515,18.983,149.515,42.052z"/><path style="fill:#4BC999;" d="M497.113,181.663L497.113,181.663c0,34.495-27.964,62.459-62.459,62.459h-27.013 c-34.495,0-62.459-27.964-62.459-62.459l0,0c0-4.869,2.736-9.326,7.078-11.529l19.122-9.704 c10.781-5.471,22.421-9.053,34.414-10.589l15.35-1.966l4.637,0.593h0.003l10.71,1.372c11.993,1.536,23.635,5.119,34.417,10.591 l19.123,9.705C494.378,172.338,497.113,176.794,497.113,181.663z"/><g> <path style="fill:#E5BFA3;" d="M444.638,126.726v25.233c0,12.972-10.517,23.489-23.489,23.489l0,0 c-12.972,0-23.489-10.517-23.489-23.489v-25.233C397.659,126.726,444.638,126.726,444.638,126.726z"/> <circle style="fill:#E5BFA3;" cx="370.437" cy="85.452" r="14.518"/> <circle style="fill:#E5BFA3;" cx="471.855" cy="85.452" r="14.518"/> </g><path style="fill:#F9D6B9;" d="M473.449,44.006l-104.602-5.568v58.347c0,28.885,23.416,52.3,52.3,52.3l0,0 c28.885,0,52.3-23.416,52.3-52.3V44.006H473.449z"/><path style="fill:#E5BFA3;" d="M389.718,96.785V39.548l-20.87-1.111v58.347c0,28.885,23.416,52.3,52.3,52.3l0,0 c3.574,0,7.062-0.36,10.434-1.044C407.698,143.205,389.718,122.095,389.718,96.785z"/><path style="fill:#5C5E70;" d="M479.813,42.052v26.347c0,2.142-0.867,4.081-2.27,5.484c-1.443,1.445-3.452,2.32-5.661,2.27 c-4.24-0.095-7.579-3.67-7.579-7.91v-3.983c0-3.156-1.278-6.008-3.347-8.077s-4.921-3.347-8.077-3.347 c-4.921,0-9.71,1.652-13.547,4.739c-4.975,4.001-11.298,6.398-18.184,6.398c-6.884,0-13.208-2.397-18.182-6.398 c-0.657-0.531-1.345-1.016-2.055-1.459c-0.008-0.008-0.019-0.014-0.026-0.019c-1.352-0.843-2.79-1.528-4.285-2.05 c-2.297-0.798-4.723-1.212-7.186-1.212c-6.306,0-11.418,5.12-11.418,11.428v4.137c0,2.14-0.867,4.081-2.273,5.484 c-1.402,1.402-3.341,2.27-5.484,2.27c-4.282,0-7.753-3.471-7.753-7.756V42.052c0-23.069,18.699-41.771,41.769-41.771h33.787 C461.11,0.281,479.813,18.983,479.813,42.052z"/><path style="fill:#494B5B;" d="M404.251,0.281h30.919c-23.061,0-41.765,18.704-41.765,41.775v11.149 c-1.306-0.24-2.644-0.366-3.992-0.366c-6.311,0-11.421,5.12-11.421,11.421v4.138c0,2.142-0.867,4.086-2.267,5.486 c-1.411,1.4-3.344,2.267-5.486,2.267c-4.284,0-7.753-3.469-7.753-7.753V42.056C362.487,18.985,381.18,0.281,404.251,0.281z"/><path style="fill:#BA773A;" d="M73.954,0.277h30.919c-23.061,0-41.765,18.704-41.765,41.775v11.149 c-1.306-0.24-2.644-0.366-3.992-0.366c-6.311,0-11.421,5.12-11.421,11.421v4.138c0,2.142-0.867,4.086-2.267,5.486 c-1.411,1.4-3.344,2.267-5.486,2.267c-4.284,0-7.753-3.469-7.753-7.753V42.052C32.189,18.981,50.882,0.277,73.954,0.277z"/><path style="fill:#FFD15C;" d="M331.967,475.94c0,9.404-2.079,18.328-5.799,26.331c-22.298,6.332-45.829,9.728-70.165,9.728 s-47.867-3.396-70.165-9.728c-3.72-8.004-5.799-16.927-5.799-26.331c0-2.435,0.679-4.765,1.902-6.76 c1.233-1.996,2.999-3.668,5.172-4.765l19.122-9.707c8.328-4.221,17.168-7.314,26.279-9.216c2.696-0.564,5.402-1.024,8.14-1.369 l8.934-1.139l6.416-0.825l4.629,0.596h0.01l1.766,0.23l8.944,1.139c2.727,0.345,5.454,0.805,8.14,1.379 c9.112,1.891,17.951,4.984,26.269,9.206l19.132,9.707C329.23,466.619,331.967,471.081,331.967,475.94z"/><g> <path style="fill:#E5BFA3;" d="M279.489,421.008v25.233c0,12.972-10.517,23.489-23.489,23.489l0,0 c-12.972,0-23.489-10.517-23.489-23.489v-25.233H279.489z"/> <circle style="fill:#E5BFA3;" cx="205.291" cy="379.726" r="14.518"/> <circle style="fill:#E5BFA3;" cx="306.709" cy="379.726" r="14.518"/> </g><path style="fill:#F9D6B9;" d="M308.3,338.289l-104.602-5.568v58.347c0,28.885,23.416,52.3,52.3,52.3l0,0 c28.885,0,52.3-23.416,52.3-52.3v-52.779H308.3z"/><path style="fill:#E5BFA3;" d="M224.569,391.067v-57.235l-20.87-1.111v58.347c0,28.885,23.416,52.3,52.3,52.3l0,0 c3.574,0,7.062-0.36,10.434-1.044C242.55,437.487,224.569,416.378,224.569,391.067z"/><path style="fill:#C98847;" d="M314.664,336.334v26.346c0,2.142-0.867,4.081-2.27,5.484c-1.442,1.445-3.452,2.32-5.661,2.27 c-4.24-0.095-7.579-3.67-7.579-7.91v-3.983c0-3.156-1.278-6.008-3.347-8.077c-2.068-2.068-4.921-3.347-8.077-3.347 c-4.921,0-9.71,1.652-13.547,4.739c-4.975,4.001-11.298,6.398-18.184,6.398c-6.884,0-13.208-2.397-18.182-6.398 c-0.657-0.531-1.345-1.016-2.055-1.459c-0.008-0.008-0.019-0.014-0.026-0.019c-1.352-0.843-2.79-1.528-4.285-2.05 c-2.297-0.798-4.723-1.212-7.186-1.212c-6.306,0-11.418,5.12-11.418,11.428v4.137c0,2.14-0.867,4.081-2.273,5.484 c-1.402,1.402-3.341,2.27-5.484,2.27c-4.282,0-7.753-3.471-7.753-7.756v-26.346c0-23.069,18.699-41.771,41.769-41.771h33.787 C295.962,294.563,314.664,313.265,314.664,336.334z"/><path style="fill:#BA773A;" d="M239.102,294.559h30.919c-23.061,0-41.765,18.704-41.765,41.775v11.149 c-1.306-0.24-2.644-0.366-3.992-0.366c-6.311,0-11.421,5.12-11.421,11.421v4.138c0,2.142-0.867,4.086-2.267,5.486 c-1.411,1.4-3.344,2.267-5.486,2.267c-4.284,0-7.753-3.469-7.753-7.753v-26.342C197.337,313.262,216.031,294.559,239.102,294.559z"/><g> <path style="fill:#78CAEF;" d="M175.048,424.089C112.513,395.28,67.809,334.18,62.433,262.285 c-0.465-6.218-5.572-11.062-11.808-11.062h-0.002c-6.839,0-12.314,5.785-11.812,12.606 c5.952,80.782,56.154,149.453,126.405,181.799c7.847,3.613,16.804-2.111,16.804-10.75v-0.004 C182.019,430.22,179.274,426.036,175.048,424.089z"/> <path style="fill:#78CAEF;" d="M163.722,58.086c0,8.501,8.681,14.193,16.504,10.864c23.293-9.914,48.904-15.403,75.775-15.403 s52.482,5.489,75.775,15.403c7.822,3.329,16.504-2.363,16.504-10.864l0,0c0-4.778-2.888-9.055-7.285-10.926 C314.865,36.04,286.141,29.874,256,29.874s-58.865,6.166-84.994,17.286C166.609,49.031,163.722,53.308,163.722,58.086 L163.722,58.086z"/> <path style="fill:#78CAEF;" d="M449.568,262.285c-5.376,71.894-50.081,132.995-112.615,161.803 c-4.227,1.948-6.973,6.13-6.973,10.784v0.004c0,8.639,8.956,14.363,16.804,10.75C417.037,413.28,467.238,344.61,473.19,263.828 c0.503-6.82-4.973-12.606-11.811-12.606h-0.002C455.141,251.224,450.033,256.067,449.568,262.285z"/> </g></symbol><symbol id="star" viewBox="0 0 53.867 53.867"><polygon style="fill:#EFCE4A;" points="26.934,1.318 35.256,18.182 53.867,20.887 40.4,34.013 43.579,52.549 26.934,43.798 10.288,52.549 13.467,34.013 0,20.887 18.611,18.182 "/></symbol><symbol id="star-1" viewBox="0 0 55.867 55.867"><path d="M11.287,54.548c-0.207,0-0.414-0.064-0.588-0.191c-0.308-0.224-0.462-0.603-0.397-0.978l3.091-18.018L0.302,22.602 c-0.272-0.266-0.37-0.663-0.253-1.024c0.118-0.362,0.431-0.626,0.808-0.681l18.09-2.629l8.091-16.393 c0.168-0.342,0.516-0.558,0.896-0.558l0,0c0.381,0,0.729,0.216,0.896,0.558l8.09,16.393l18.091,2.629 c0.377,0.055,0.689,0.318,0.808,0.681c0.117,0.361,0.02,0.759-0.253,1.024L42.475,35.363l3.09,18.017 c0.064,0.375-0.09,0.754-0.397,0.978c-0.308,0.226-0.717,0.255-1.054,0.076l-16.18-8.506l-16.182,8.506 C11.606,54.51,11.446,54.548,11.287,54.548z M3.149,22.584l12.016,11.713c0.235,0.229,0.343,0.561,0.287,0.885L12.615,51.72 l14.854-7.808c0.291-0.154,0.638-0.154,0.931,0l14.852,7.808l-2.836-16.538c-0.056-0.324,0.052-0.655,0.287-0.885l12.016-11.713 l-16.605-2.413c-0.326-0.047-0.607-0.252-0.753-0.547L27.934,4.578l-7.427,15.047c-0.146,0.295-0.427,0.5-0.753,0.547L3.149,22.584z "/></symbol></svg>